<?xml version="1.0" encoding="utf-8"?>
<!-- Generator: Adobe Illustrator 25.0.1, SVG Export Plug-In . SVG Version: 6.00 Build 0)  -->
<svg version="1.0" id="Calque_1" xmlns="http://www.w3.org/2000/svg" xmlns:xlink="http://www.w3.org/1999/xlink" x="0px" y="0px"
	 viewBox="0 0 581.2 370.2" style="enable-background:new 0 0 581.2 370.2;" xml:space="preserve">
<style type="text/css">
	.st0{fill:#00CCBC;}
</style>
<g id="XMLID_88_">
</g>
<g id="XMLID_89_">
</g>
<g id="XMLID_90_">
</g>
<g id="XMLID_91_">
</g>
<g id="XMLID_92_">
</g>
<g id="XMLID_93_">
</g>
<g id="XMLID_94_">
</g>
<g id="XMLID_95_">
</g>
<g id="XMLID_96_">
</g>
<g id="XMLID_97_">
</g>
<g id="XMLID_98_">
</g>
<g id="XMLID_99_">
</g>
<g id="XMLID_100_">
</g>
<g id="XMLID_101_">
</g>
<g id="XMLID_102_">
</g>
<path class="st0" d="M224.5,217.8h11.2l-1.9-8.7v-51.7h-10.7V181c-3.2-3.7-7.7-5.9-12.9-5.9c-10.7,0-19,8.9-19,21.8
	c0,13,8.3,21.8,19,21.8c5.3,0,9.9-2.3,13.1-6.2L224.5,217.8L224.5,217.8z M436.1,186.7c2.2,0,4.2,0.6,6,1.9l5.1-11.4
	c-2.4-1.5-5.1-2.1-7.8-2.1c-4.8,0-8.9,2.2-11.4,6.3l-1.1-5.3h-11l1.8,8.2v33.6h10.7v-26.7C429.8,188.4,432.5,186.7,436.1,186.7
	L436.1,186.7L436.1,186.7L436.1,186.7z M467.4,207.5c-6.2,0-10.8-4.1-10.8-10.5c0-6.5,4.6-10.5,10.8-10.5c6.3,0,10.8,4,10.8,10.5
	C478.2,203.3,473.7,207.5,467.4,207.5L467.4,207.5z M201.6,196.9c0-6.5,4.6-10.5,10.8-10.5c6.3,0,10.8,4,10.8,10.5
	c0,6.4-4.5,10.5-10.8,10.5C206.2,207.5,201.6,203.3,201.6,196.9z M514.9,207.5c-6.2,0-10.8-4.1-10.8-10.5c0-6.5,4.6-10.5,10.8-10.5
	c6.3,0,10.8,4,10.8,10.5C525.6,203.3,521.1,207.5,514.9,207.5z M261.7,185.8c5.5,0,9.1,2.6,10.3,7.4h-20.6
	C252.5,188.3,256.2,185.8,261.7,185.8L261.7,185.8z M389.6,185.8c5.5,0,9.1,2.6,10.3,7.4h-20.6C380.6,188.3,384.2,185.8,389.6,185.8
	L389.6,185.8z M337.4,217.8h17.2l11.2-41.9h-11.7l-8.1,34l-8.2-33.9h-11.5L337.4,217.8L337.4,217.8z M309.9,217.8h10.7v-41.9h-10.7
	V217.8z M263.3,218.6c6,0,11.8-1.7,16.7-4.8l-4.1-9.2c-3.8,2.1-8.2,3.2-12.5,3.2c-5.6,0-9.5-2.2-11.3-6.3h30.2
	c0.3-1.6,0.5-3,0.5-4.9c0-13-9-21.6-20.9-21.6c-12.1,0-20.9,8.8-20.9,21.8C240.9,210.1,249.7,218.6,263.3,218.6L263.3,218.6z
	 M536,196.9c0-13-9-21.8-21.1-21.8c-12.2,0-21.1,8.9-21.1,21.8s9,21.8,21.1,21.8C527,218.7,536,209.9,536,196.9L536,196.9z
	 M391.1,218.7c6,0,11.8-1.6,16.7-4.8l-4.1-9.2c-3.8,2.1-8.2,3.2-12.5,3.2c-5.6,0-9.5-2.2-11.3-6.3h30.2c0.3-1.6,0.5-3,0.5-4.9
	c0-13-9-21.6-20.9-21.6c-12.1,0-20.9,8.8-20.9,21.8C368.8,210.3,377.5,218.7,391.1,218.7L391.1,218.7L391.1,218.7z M467.4,218.7
	c12.2,0,21.1-8.9,21.1-21.8s-9-21.8-21.1-21.8c-12.2,0-21.1,8.9-21.1,21.8S455.2,218.7,467.4,218.7L467.4,218.7z M289.6,217.8h10.7
	v-60.4h-10.7V217.8L289.6,217.8z M315.3,170.2c3.7,0,6.7-3,6.7-6.8s-2.9-6.8-6.7-6.8c-3.8,0-6.8,3-6.8,6.8S311.4,170.2,315.3,170.2
	L315.3,170.2z M131.4,119.3l-6.1,58l-10.4-48.9l-32.8,6.9l10.3,48.9l-47.2,10l8.4,39l83.1,17.7l19-42.5l9-85.6L131.4,119.3
	L131.4,119.3L131.4,119.3z M105.1,203.5c-1.7,1.6-3.9,1.4-6.4,0.6c-2.4-0.8-3.4-3.6-2.6-7.2c0.7-2.6,3.8-3,5.5-3
	c0.6,0,1.2,0.1,1.8,0.4c1.1,0.5,3,1.6,3.4,3.2C107.4,199.9,106.8,201.9,105.1,203.5L105.1,203.5L105.1,203.5L105.1,203.5z
	 M129.2,206.1c-1.3,2.2-4.5,2.5-7.8,0.9c-2.2-1.1-2.2-3.7-1.9-5.4c0.1-0.9,0.5-1.8,1.1-2.5c0.8-1,2.1-2.3,3.5-2.3
	c2.5-0.1,4.5,1,5.7,3C131,201.8,130.4,204,129.2,206.1L129.2,206.1L129.2,206.1z"/>
</svg>
